<!--?xml version="1.0" encoding="utf-8"?-->
<!-- Generator: Adobe Illustrator 19.0.0, SVG Export Plug-In . SVG Version: 6.00 Build 0)  -->
<svg version="1.1" id="Layer_1" xmlns="http://www.w3.org/2000/svg" xmlns:xlink="http://www.w3.org/1999/xlink" x="0px" y="0px" viewBox="0 0 135.3 176.7" xml:space="preserve">
<style type="text/css">
	.st0{fill:none;stroke:#000000;stroke-miterlimit:10;}
	.st1{fill:none;stroke:#231F20;stroke-miterlimit:10;}
</style>
<path class="st0 FvgOPiEM_0" d="M100.3,46.3L124.3,22.7L105.7,10L87.7,4L57.3,4L29,20.3L16.7,28.3L11.3,60.3L17.7,78.3L40.7,91.7L
	59.3,102.3L80.7,105L88,119.3L70,134.7L52.7,132L30.3,122L4,145L23.7,155L42.7,165.3L64.2,167.3L80.7,166L105.7,155.3L124.3,136.7L
	127.7,114.7L116.3,83.7L102,76.3L74.7,67.3L55.3,65.3L53.7,43L79,36.7Z"></path>
<path class="st0 FvgOPiEM_1" d="M100.3,23.7L87.7,4L80.7,10Z"></path>
<path class="st0 FvgOPiEM_2" d="M18.6,65.4L36,49L11.3,60.3L23.3,68.7L40.7,91.7L55.3,65.3L17.7,78.3L16.7,28.3L36,49L53.7,43L
	51.3,26.3L80.7,10L79,36.7L100.3,23.7L105.7,10L124.3,22.7L100.3,23.7L100.3,46.3"></path>
<path class="st0 FvgOPiEM_3" d="M36,49L17.7,78.3"></path>
<path class="st0 FvgOPiEM_4" d="M16.7,28.3L51.3,26.3L57.3,4L80.7,10"></path>
<path class="st0 FvgOPiEM_5" d="M79,36.7L51.3,26.3L29,20.3L36,49L27.9,74.8"></path>
<path class="st1 FvgOPiEM_6" d="M53.7,43L29,20.3L53.7,43z"></path>
<path class="st1 FvgOPiEM_7" d="M40.7,91.7L74.2,86.8L102,76.3L80.7,105L101.4,119.3L120.9,105.3L116.3,83.7L87.9,99L59.3,102.3L
	74.2,86.8L55.3,65.3L36,49"></path>
<path class="st1 FvgOPiEM_8" d="M102,76.3L120.9,105.3L127.3,113.5"></path>
<path class="st1 FvgOPiEM_9" d="M124.3,136.7L120.9,105.3L99.1,115.8"></path>
<path class="st1 FvgOPiEM_10" d="M120.9,105.3L87.9,99L88,119.3L127.7,114.7L115,146L101.4,119.3L87.9,99L74.2,86.8L74.7,67.3"></path>
<path class="st1 FvgOPiEM_11" d="M123.2,136.7L101.4,119.3L65.8,167.2L62.2,141.8L52.7,132L44.1,165.5L36.5,141.5L30.3,122L23.7,155L
	13.4,144.5L4,145"></path>
<path class="st1 FvgOPiEM_12" d="M13.4,144.5L30.3,122"></path>
<path class="st1 FvgOPiEM_13" d="M23.7,155L36.5,141.5L52.7,132"></path>
<path class="st1 FvgOPiEM_14" d="M80.7,166L72.7,157.9L105.7,155.3L82.7,136.7L70,134.7L62.2,141.8L44.1,165.5"></path>
<path class="st1 FvgOPiEM_15" d="M62.2,141.8L105.7,155.3"></path>
<path class="st1 FvgOPiEM_16" d="M115.6,144.5L80.5,147.5"></path>
<style>.FvgOPiEM_0{stroke-dasharray:718 720;stroke-dashoffset:719;animation:FvgOPiEM_draw 2666ms linear 0ms forwards;}.FvgOPiEM_1{stroke-dasharray:57 59;stroke-dashoffset:58;animation:FvgOPiEM_draw 2666ms linear 83ms forwards;}.FvgOPiEM_2{stroke-dasharray:448 450;stroke-dashoffset:449;animation:FvgOPiEM_draw 2666ms linear 166ms forwards;}.FvgOPiEM_3{stroke-dasharray:35 37;stroke-dashoffset:36;animation:FvgOPiEM_draw 2666ms linear 250ms forwards;}.FvgOPiEM_4{stroke-dasharray:82 84;stroke-dashoffset:83;animation:FvgOPiEM_draw 2666ms linear 333ms forwards;}.FvgOPiEM_5{stroke-dasharray:110 112;stroke-dashoffset:111;animation:FvgOPiEM_draw 2666ms linear 416ms forwards;}.FvgOPiEM_6{stroke-dasharray:68 70;stroke-dashoffset:69;animation:FvgOPiEM_draw 2666ms linear 500ms forwards;}.FvgOPiEM_7{stroke-dasharray:307 309;stroke-dashoffset:308;animation:FvgOPiEM_draw 2666ms linear 583ms forwards;}.FvgOPiEM_8{stroke-dasharray:46 48;stroke-dashoffset:47;animation:FvgOPiEM_draw 2666ms linear 666ms forwards;}.FvgOPiEM_9{stroke-dasharray:56 58;stroke-dashoffset:57;animation:FvgOPiEM_draw 2666ms linear 750ms forwards;}.FvgOPiEM_10{stroke-dasharray:220 222;stroke-dashoffset:221;animation:FvgOPiEM_draw 2666ms linear 833ms forwards;}.FvgOPiEM_11{stroke-dasharray:265 267;stroke-dashoffset:266;animation:FvgOPiEM_draw 2666ms linear 916ms forwards;}.FvgOPiEM_12{stroke-dasharray:29 31;stroke-dashoffset:30;animation:FvgOPiEM_draw 2666ms linear 1000ms forwards;}.FvgOPiEM_13{stroke-dasharray:38 40;stroke-dashoffset:39;animation:FvgOPiEM_draw 2666ms linear 1083ms forwards;}.FvgOPiEM_14{stroke-dasharray:128 130;stroke-dashoffset:129;animation:FvgOPiEM_draw 2666ms linear 1166ms forwards;}.FvgOPiEM_15{stroke-dasharray:46 48;stroke-dashoffset:47;animation:FvgOPiEM_draw 2666ms linear 1250ms forwards;}.FvgOPiEM_16{stroke-dasharray:36 38;stroke-dashoffset:37;animation:FvgOPiEM_draw 2666ms linear 1333ms forwards;}@keyframes FvgOPiEM_draw{100%{stroke-dashoffset:0;}}@keyframes FvgOPiEM_fade{0%{stroke-opacity:1;}95.1219512195122%{stroke-opacity:1;}100%{stroke-opacity:0;}}</style></svg>
