<!--?xml version="1.0" encoding="utf-8"?-->
<!-- Generator: Adobe Illustrator 19.0.0, SVG Export Plug-In . SVG Version: 6.00 Build 0)  -->
<svg version="1.1" id="Layer_1" xmlns="http://www.w3.org/2000/svg" xmlns:xlink="http://www.w3.org/1999/xlink" x="0px" y="0px" viewBox="375 0 222 545.5" xml:space="preserve">
<style type="text/css">
	.st0{fill:none;stroke:#FFFFFF;stroke-miterlimit:10;}
	.st1{fill:none;}
</style>
<g id="XMLID_2_">
	<path id="XMLID_1_" class="st0 MVvoDxMj_0" d="M483.7,466.2L381,328.2L485.5,24.4L588.7,327.4Z"></path>
	<path id="XMLID_4_" class="st0 MVvoDxMj_1" d="M485.1,466.2L444.5,400.1L382.3,328.2L444.1,255L485.1,171.7L527.8,255L590,327.4L
		546.3,360L526.1,400.5Z"></path>
	<path id="XMLID_6_" class="st0 MVvoDxMj_2" d="M485.2,171.7L502.9,255L485.5,296.5L485.5,171.7L468.2,256.5L423.4,359.1L382.4,328.4"></path>
	<path id="XMLID_7_" class="st1 MVvoDxMj_3" d="M501.4,255L505.2,365.9L544.7,360Z"></path>
	<path id="XMLID_8_" class="st0 MVvoDxMj_4" d="M501.8,255L544.9,360L505.3,365.9L483.6,466.4L442.7,255.1L524.7,400.6L526.5,255.1L
		443.2,400.1L422,359.1L484.1,296.5L545.5,360L545.5,357.3L545.5,296.5L501.8,255"></path>
	<path id="XMLID_5_" class="st0 MVvoDxMj_5" d="M422,359.1L442.8,255.2L485.5,24.4L526.5,255.1L544.7,357.3"></path>
	<path id="XMLID_3_" class="st1 MVvoDxMj_6" d="M497.7,400.8L463.7,364.2L443,337.5L443,400.3L524.6,400.6L443.1,400.1L524.7,400.6L
		505.1,365.9L470.8,400.6"></path>
	<path id="XMLID_10_" class="st0 MVvoDxMj_7" d="M497.7,400.8L463.8,364.2L443.2,337.5L435.6,328L422.3,296.5L422,359.1L463.8,364.2L
		465.2,315.2L483.7,296.5L466.7,256.5L422.3,296.5L442.8,255.2L443.2,400.2L524.9,400.8"></path>
	<path id="XMLID_9_" class="st0 MVvoDxMj_8" d="M470.8,400.6L504,363.8L524.7,339.2L531.5,328L544.7,296.5"></path>
	<path id="XMLID_12_" class="st0 MVvoDxMj_9" d="M504,363.8L526.5,255.1"></path>
	<path id="XMLID_13_" class="st0 MVvoDxMj_10" d="M485.5,24.4L483.4,545.5"></path>
</g>
<style>.MVvoDxMj_0{stroke-dasharray:988 990;stroke-dashoffset:989;animation:MVvoDxMj_draw 8000ms linear 0ms forwards;}.MVvoDxMj_1{stroke-dasharray:728 730;stroke-dashoffset:729;animation:MVvoDxMj_draw 8000ms linear 100ms forwards;}.MVvoDxMj_2{stroke-dasharray:505 507;stroke-dashoffset:506;animation:MVvoDxMj_draw 8000ms linear 200ms forwards;}.MVvoDxMj_3{stroke-dasharray:265 267;stroke-dashoffset:266;animation:MVvoDxMj_draw 8000ms linear 300ms forwards;}.MVvoDxMj_4{stroke-dasharray:1298 1300;stroke-dashoffset:1299;animation:MVvoDxMj_draw 8000ms linear 400ms forwards;}.MVvoDxMj_5{stroke-dasharray:679 681;stroke-dashoffset:680;animation:MVvoDxMj_draw 8000ms linear 500ms forwards;}.MVvoDxMj_6{stroke-dasharray:480 482;stroke-dashoffset:481;animation:MVvoDxMj_draw 8000ms linear 600ms forwards;}.MVvoDxMj_7{stroke-dasharray:687 689;stroke-dashoffset:688;animation:MVvoDxMj_draw 8000ms linear 700ms forwards;}.MVvoDxMj_8{stroke-dasharray:129 131;stroke-dashoffset:130;animation:MVvoDxMj_draw 8000ms linear 800ms forwards;}.MVvoDxMj_9{stroke-dasharray:112 114;stroke-dashoffset:113;animation:MVvoDxMj_draw 8000ms linear 900ms forwards;}.MVvoDxMj_10{stroke-dasharray:522 524;stroke-dashoffset:523;animation:MVvoDxMj_draw 8000ms linear 1000ms forwards;}@keyframes MVvoDxMj_draw{100%{stroke-dashoffset:0;}}@keyframes MVvoDxMj_fade{0%{stroke-opacity:1;}94.44444444444444%{stroke-opacity:1;}100%{stroke-opacity:0;}}</style></svg>
